<mxfile host="app.diagrams.net" modified="2023-07-21T12:34:40.299Z" agent="Mozilla/5.0 (Windows NT 10.0; Win64; x64) AppleWebKit/537.36 (KHTML, like Gecko) Chrome/113.0.0.0 Safari/537.36 OPR/99.0.0.0 (Edition std-1)" etag="J3mKz7dCTIg1hX9cbLqL" version="21.6.5" type="device">
  <diagram name="Seite-1" id="8_0bzm0Tc0ikHf65Cux4">
    <mxGraphModel dx="1105" dy="600" grid="1" gridSize="10" guides="1" tooltips="1" connect="1" arrows="1" fold="1" page="1" pageScale="1" pageWidth="827" pageHeight="1169" math="0" shadow="0">
      <root>
        <mxCell id="0" />
        <mxCell id="1" parent="0" />
        <mxCell id="miO6C-N8D0zN8yz4dFjm-1" value="" style="rounded=0;whiteSpace=wrap;html=1;" vertex="1" parent="1">
          <mxGeometry x="40" y="200" width="20" height="20" as="geometry" />
        </mxCell>
        <mxCell id="miO6C-N8D0zN8yz4dFjm-2" value="" style="rounded=0;whiteSpace=wrap;html=1;" vertex="1" parent="1">
          <mxGeometry x="60" y="200" width="20" height="20" as="geometry" />
        </mxCell>
        <mxCell id="miO6C-N8D0zN8yz4dFjm-3" value="" style="rounded=0;whiteSpace=wrap;html=1;" vertex="1" parent="1">
          <mxGeometry x="80" y="200" width="20" height="20" as="geometry" />
        </mxCell>
        <mxCell id="miO6C-N8D0zN8yz4dFjm-4" value="" style="rounded=0;whiteSpace=wrap;html=1;" vertex="1" parent="1">
          <mxGeometry x="100" y="200" width="20" height="20" as="geometry" />
        </mxCell>
        <mxCell id="miO6C-N8D0zN8yz4dFjm-5" value="" style="rounded=0;whiteSpace=wrap;html=1;" vertex="1" parent="1">
          <mxGeometry x="120" y="200" width="20" height="20" as="geometry" />
        </mxCell>
        <mxCell id="miO6C-N8D0zN8yz4dFjm-7" value="" style="rounded=0;whiteSpace=wrap;html=1;" vertex="1" parent="1">
          <mxGeometry x="40" y="220" width="20" height="20" as="geometry" />
        </mxCell>
        <mxCell id="miO6C-N8D0zN8yz4dFjm-8" value="" style="rounded=0;whiteSpace=wrap;html=1;" vertex="1" parent="1">
          <mxGeometry x="60" y="220" width="20" height="20" as="geometry" />
        </mxCell>
        <mxCell id="miO6C-N8D0zN8yz4dFjm-9" value="" style="rounded=0;whiteSpace=wrap;html=1;" vertex="1" parent="1">
          <mxGeometry x="80" y="220" width="20" height="20" as="geometry" />
        </mxCell>
        <mxCell id="miO6C-N8D0zN8yz4dFjm-10" value="" style="rounded=0;whiteSpace=wrap;html=1;" vertex="1" parent="1">
          <mxGeometry x="100" y="220" width="20" height="20" as="geometry" />
        </mxCell>
        <mxCell id="miO6C-N8D0zN8yz4dFjm-11" value="" style="rounded=0;whiteSpace=wrap;html=1;" vertex="1" parent="1">
          <mxGeometry x="120" y="220" width="20" height="20" as="geometry" />
        </mxCell>
        <mxCell id="miO6C-N8D0zN8yz4dFjm-12" value="" style="rounded=0;whiteSpace=wrap;html=1;" vertex="1" parent="1">
          <mxGeometry x="40" y="240" width="20" height="20" as="geometry" />
        </mxCell>
        <mxCell id="miO6C-N8D0zN8yz4dFjm-13" value="" style="rounded=0;whiteSpace=wrap;html=1;" vertex="1" parent="1">
          <mxGeometry x="60" y="240" width="20" height="20" as="geometry" />
        </mxCell>
        <mxCell id="miO6C-N8D0zN8yz4dFjm-14" value="" style="rounded=0;whiteSpace=wrap;html=1;" vertex="1" parent="1">
          <mxGeometry x="80" y="240" width="20" height="20" as="geometry" />
        </mxCell>
        <mxCell id="miO6C-N8D0zN8yz4dFjm-15" value="" style="rounded=0;whiteSpace=wrap;html=1;" vertex="1" parent="1">
          <mxGeometry x="100" y="240" width="20" height="20" as="geometry" />
        </mxCell>
        <mxCell id="miO6C-N8D0zN8yz4dFjm-16" value="" style="rounded=0;whiteSpace=wrap;html=1;" vertex="1" parent="1">
          <mxGeometry x="120" y="240" width="20" height="20" as="geometry" />
        </mxCell>
        <mxCell id="miO6C-N8D0zN8yz4dFjm-17" value="" style="rounded=0;whiteSpace=wrap;html=1;" vertex="1" parent="1">
          <mxGeometry x="40" y="260" width="20" height="20" as="geometry" />
        </mxCell>
        <mxCell id="miO6C-N8D0zN8yz4dFjm-18" value="" style="rounded=0;whiteSpace=wrap;html=1;" vertex="1" parent="1">
          <mxGeometry x="60" y="260" width="20" height="20" as="geometry" />
        </mxCell>
        <mxCell id="miO6C-N8D0zN8yz4dFjm-19" value="" style="rounded=0;whiteSpace=wrap;html=1;" vertex="1" parent="1">
          <mxGeometry x="80" y="260" width="20" height="20" as="geometry" />
        </mxCell>
        <mxCell id="miO6C-N8D0zN8yz4dFjm-20" value="" style="rounded=0;whiteSpace=wrap;html=1;" vertex="1" parent="1">
          <mxGeometry x="100" y="260" width="20" height="20" as="geometry" />
        </mxCell>
        <mxCell id="miO6C-N8D0zN8yz4dFjm-21" value="" style="rounded=0;whiteSpace=wrap;html=1;" vertex="1" parent="1">
          <mxGeometry x="120" y="260" width="20" height="20" as="geometry" />
        </mxCell>
        <mxCell id="miO6C-N8D0zN8yz4dFjm-22" value="" style="rounded=0;whiteSpace=wrap;html=1;" vertex="1" parent="1">
          <mxGeometry x="40" y="280" width="20" height="20" as="geometry" />
        </mxCell>
        <mxCell id="miO6C-N8D0zN8yz4dFjm-23" value="" style="rounded=0;whiteSpace=wrap;html=1;" vertex="1" parent="1">
          <mxGeometry x="60" y="280" width="20" height="20" as="geometry" />
        </mxCell>
        <mxCell id="miO6C-N8D0zN8yz4dFjm-24" value="" style="rounded=0;whiteSpace=wrap;html=1;" vertex="1" parent="1">
          <mxGeometry x="80" y="280" width="20" height="20" as="geometry" />
        </mxCell>
        <mxCell id="miO6C-N8D0zN8yz4dFjm-25" value="" style="rounded=0;whiteSpace=wrap;html=1;" vertex="1" parent="1">
          <mxGeometry x="100" y="280" width="20" height="20" as="geometry" />
        </mxCell>
        <mxCell id="miO6C-N8D0zN8yz4dFjm-26" value="" style="rounded=0;whiteSpace=wrap;html=1;" vertex="1" parent="1">
          <mxGeometry x="120" y="280" width="20" height="20" as="geometry" />
        </mxCell>
        <mxCell id="miO6C-N8D0zN8yz4dFjm-27" value="" style="endArrow=classic;html=1;rounded=0;" edge="1" parent="1">
          <mxGeometry width="50" height="50" relative="1" as="geometry">
            <mxPoint x="40" y="320" as="sourcePoint" />
            <mxPoint x="140" y="320" as="targetPoint" />
          </mxGeometry>
        </mxCell>
        <mxCell id="miO6C-N8D0zN8yz4dFjm-29" value="x" style="edgeLabel;html=1;align=center;verticalAlign=middle;resizable=0;points=[];labelBackgroundColor=none;" vertex="1" connectable="0" parent="miO6C-N8D0zN8yz4dFjm-27">
          <mxGeometry x="0.8633" y="-1" relative="1" as="geometry">
            <mxPoint x="-3" y="9" as="offset" />
          </mxGeometry>
        </mxCell>
        <mxCell id="miO6C-N8D0zN8yz4dFjm-28" value="" style="endArrow=classic;html=1;rounded=0;" edge="1" parent="1">
          <mxGeometry width="50" height="50" relative="1" as="geometry">
            <mxPoint x="20" y="300" as="sourcePoint" />
            <mxPoint x="20" y="200" as="targetPoint" />
          </mxGeometry>
        </mxCell>
        <mxCell id="miO6C-N8D0zN8yz4dFjm-31" value="y" style="edgeLabel;html=1;align=center;verticalAlign=middle;resizable=0;points=[];labelBackgroundColor=none;" vertex="1" connectable="0" parent="miO6C-N8D0zN8yz4dFjm-28">
          <mxGeometry x="0.6942" y="-1" relative="1" as="geometry">
            <mxPoint x="-11" y="-5" as="offset" />
          </mxGeometry>
        </mxCell>
        <mxCell id="miO6C-N8D0zN8yz4dFjm-32" value="" style="endArrow=classic;html=1;rounded=0;" edge="1" parent="1">
          <mxGeometry width="50" height="50" relative="1" as="geometry">
            <mxPoint x="160" y="300" as="sourcePoint" />
            <mxPoint x="280" y="180" as="targetPoint" />
          </mxGeometry>
        </mxCell>
        <mxCell id="miO6C-N8D0zN8yz4dFjm-46" value="z" style="edgeLabel;html=1;align=center;verticalAlign=middle;resizable=0;points=[];labelBackgroundColor=none;" vertex="1" connectable="0" parent="miO6C-N8D0zN8yz4dFjm-32">
          <mxGeometry x="0.8405" y="-1" relative="1" as="geometry">
            <mxPoint x="10" y="-1" as="offset" />
          </mxGeometry>
        </mxCell>
        <mxCell id="miO6C-N8D0zN8yz4dFjm-34" value="" style="shape=parallelogram;perimeter=parallelogramPerimeter;whiteSpace=wrap;html=1;fixedSize=1;size=140;" vertex="1" parent="1">
          <mxGeometry x="120" y="60" width="160" height="140" as="geometry" />
        </mxCell>
        <mxCell id="miO6C-N8D0zN8yz4dFjm-36" value="" style="shape=parallelogram;perimeter=parallelogramPerimeter;whiteSpace=wrap;html=1;fixedSize=1;size=140;" vertex="1" parent="1">
          <mxGeometry x="100" y="60" width="160" height="140" as="geometry" />
        </mxCell>
        <mxCell id="miO6C-N8D0zN8yz4dFjm-37" value="" style="shape=parallelogram;perimeter=parallelogramPerimeter;whiteSpace=wrap;html=1;fixedSize=1;size=140;" vertex="1" parent="1">
          <mxGeometry x="80" y="60" width="160" height="140" as="geometry" />
        </mxCell>
        <mxCell id="miO6C-N8D0zN8yz4dFjm-38" value="" style="shape=parallelogram;perimeter=parallelogramPerimeter;whiteSpace=wrap;html=1;fixedSize=1;size=140;" vertex="1" parent="1">
          <mxGeometry x="60" y="60" width="160" height="140" as="geometry" />
        </mxCell>
        <mxCell id="miO6C-N8D0zN8yz4dFjm-39" value="" style="shape=parallelogram;perimeter=parallelogramPerimeter;whiteSpace=wrap;html=1;fixedSize=1;size=140;" vertex="1" parent="1">
          <mxGeometry x="40" y="60" width="160" height="140" as="geometry" />
        </mxCell>
        <mxCell id="miO6C-N8D0zN8yz4dFjm-40" value="" style="shape=parallelogram;perimeter=parallelogramPerimeter;whiteSpace=wrap;html=1;fixedSize=1;size=140;flipH=1;flipV=0;rotation=90;" vertex="1" parent="1">
          <mxGeometry x="130" y="70" width="160" height="140" as="geometry" />
        </mxCell>
        <mxCell id="miO6C-N8D0zN8yz4dFjm-42" value="" style="shape=parallelogram;perimeter=parallelogramPerimeter;whiteSpace=wrap;html=1;fixedSize=1;size=140;flipH=1;flipV=0;rotation=90;" vertex="1" parent="1">
          <mxGeometry x="130" y="90" width="160" height="140" as="geometry" />
        </mxCell>
        <mxCell id="miO6C-N8D0zN8yz4dFjm-43" value="" style="shape=parallelogram;perimeter=parallelogramPerimeter;whiteSpace=wrap;html=1;fixedSize=1;size=140;flipH=1;flipV=0;rotation=90;" vertex="1" parent="1">
          <mxGeometry x="130" y="110" width="160" height="140" as="geometry" />
        </mxCell>
        <mxCell id="miO6C-N8D0zN8yz4dFjm-44" value="" style="shape=parallelogram;perimeter=parallelogramPerimeter;whiteSpace=wrap;html=1;fixedSize=1;size=140;flipH=1;flipV=0;rotation=90;" vertex="1" parent="1">
          <mxGeometry x="130" y="130" width="160" height="140" as="geometry" />
        </mxCell>
        <mxCell id="miO6C-N8D0zN8yz4dFjm-45" value="" style="shape=parallelogram;perimeter=parallelogramPerimeter;whiteSpace=wrap;html=1;fixedSize=1;size=140;flipH=1;flipV=0;rotation=90;" vertex="1" parent="1">
          <mxGeometry x="130" y="150" width="160" height="140" as="geometry" />
        </mxCell>
        <mxCell id="miO6C-N8D0zN8yz4dFjm-47" value="State Array" style="text;html=1;strokeColor=none;fillColor=none;align=center;verticalAlign=middle;whiteSpace=wrap;rounded=0;" vertex="1" parent="1">
          <mxGeometry x="120" y="30" width="70" height="30" as="geometry" />
        </mxCell>
        <mxCell id="miO6C-N8D0zN8yz4dFjm-48" value="" style="rounded=0;whiteSpace=wrap;html=1;" vertex="1" parent="1">
          <mxGeometry x="340" y="70" width="20" height="20" as="geometry" />
        </mxCell>
        <mxCell id="miO6C-N8D0zN8yz4dFjm-49" value="" style="rounded=0;whiteSpace=wrap;html=1;" vertex="1" parent="1">
          <mxGeometry x="360" y="70" width="20" height="20" as="geometry" />
        </mxCell>
        <mxCell id="miO6C-N8D0zN8yz4dFjm-50" value="" style="rounded=0;whiteSpace=wrap;html=1;" vertex="1" parent="1">
          <mxGeometry x="380" y="70" width="20" height="20" as="geometry" />
        </mxCell>
        <mxCell id="miO6C-N8D0zN8yz4dFjm-51" value="" style="rounded=0;whiteSpace=wrap;html=1;" vertex="1" parent="1">
          <mxGeometry x="400" y="70" width="20" height="20" as="geometry" />
        </mxCell>
        <mxCell id="miO6C-N8D0zN8yz4dFjm-52" value="" style="rounded=0;whiteSpace=wrap;html=1;" vertex="1" parent="1">
          <mxGeometry x="420" y="70" width="20" height="20" as="geometry" />
        </mxCell>
        <mxCell id="miO6C-N8D0zN8yz4dFjm-53" value="" style="rounded=0;whiteSpace=wrap;html=1;" vertex="1" parent="1">
          <mxGeometry x="340" y="90" width="20" height="20" as="geometry" />
        </mxCell>
        <mxCell id="miO6C-N8D0zN8yz4dFjm-54" value="" style="rounded=0;whiteSpace=wrap;html=1;" vertex="1" parent="1">
          <mxGeometry x="360" y="90" width="20" height="20" as="geometry" />
        </mxCell>
        <mxCell id="miO6C-N8D0zN8yz4dFjm-55" value="" style="rounded=0;whiteSpace=wrap;html=1;" vertex="1" parent="1">
          <mxGeometry x="380" y="90" width="20" height="20" as="geometry" />
        </mxCell>
        <mxCell id="miO6C-N8D0zN8yz4dFjm-56" value="" style="rounded=0;whiteSpace=wrap;html=1;" vertex="1" parent="1">
          <mxGeometry x="400" y="90" width="20" height="20" as="geometry" />
        </mxCell>
        <mxCell id="miO6C-N8D0zN8yz4dFjm-57" value="" style="rounded=0;whiteSpace=wrap;html=1;" vertex="1" parent="1">
          <mxGeometry x="420" y="90" width="20" height="20" as="geometry" />
        </mxCell>
        <mxCell id="miO6C-N8D0zN8yz4dFjm-58" value="" style="rounded=0;whiteSpace=wrap;html=1;" vertex="1" parent="1">
          <mxGeometry x="340" y="110" width="20" height="20" as="geometry" />
        </mxCell>
        <mxCell id="miO6C-N8D0zN8yz4dFjm-59" value="" style="rounded=0;whiteSpace=wrap;html=1;" vertex="1" parent="1">
          <mxGeometry x="360" y="110" width="20" height="20" as="geometry" />
        </mxCell>
        <mxCell id="miO6C-N8D0zN8yz4dFjm-60" value="" style="rounded=0;whiteSpace=wrap;html=1;" vertex="1" parent="1">
          <mxGeometry x="380" y="110" width="20" height="20" as="geometry" />
        </mxCell>
        <mxCell id="miO6C-N8D0zN8yz4dFjm-61" value="" style="rounded=0;whiteSpace=wrap;html=1;" vertex="1" parent="1">
          <mxGeometry x="400" y="110" width="20" height="20" as="geometry" />
        </mxCell>
        <mxCell id="miO6C-N8D0zN8yz4dFjm-62" value="" style="rounded=0;whiteSpace=wrap;html=1;" vertex="1" parent="1">
          <mxGeometry x="420" y="110" width="20" height="20" as="geometry" />
        </mxCell>
        <mxCell id="miO6C-N8D0zN8yz4dFjm-63" value="" style="rounded=0;whiteSpace=wrap;html=1;" vertex="1" parent="1">
          <mxGeometry x="340" y="130" width="20" height="20" as="geometry" />
        </mxCell>
        <mxCell id="miO6C-N8D0zN8yz4dFjm-64" value="" style="rounded=0;whiteSpace=wrap;html=1;" vertex="1" parent="1">
          <mxGeometry x="360" y="130" width="20" height="20" as="geometry" />
        </mxCell>
        <mxCell id="miO6C-N8D0zN8yz4dFjm-65" value="" style="rounded=0;whiteSpace=wrap;html=1;" vertex="1" parent="1">
          <mxGeometry x="380" y="130" width="20" height="20" as="geometry" />
        </mxCell>
        <mxCell id="miO6C-N8D0zN8yz4dFjm-66" value="" style="rounded=0;whiteSpace=wrap;html=1;" vertex="1" parent="1">
          <mxGeometry x="400" y="130" width="20" height="20" as="geometry" />
        </mxCell>
        <mxCell id="miO6C-N8D0zN8yz4dFjm-67" value="" style="rounded=0;whiteSpace=wrap;html=1;" vertex="1" parent="1">
          <mxGeometry x="420" y="130" width="20" height="20" as="geometry" />
        </mxCell>
        <mxCell id="miO6C-N8D0zN8yz4dFjm-68" value="" style="rounded=0;whiteSpace=wrap;html=1;" vertex="1" parent="1">
          <mxGeometry x="340" y="150" width="20" height="20" as="geometry" />
        </mxCell>
        <mxCell id="miO6C-N8D0zN8yz4dFjm-69" value="" style="rounded=0;whiteSpace=wrap;html=1;" vertex="1" parent="1">
          <mxGeometry x="360" y="150" width="20" height="20" as="geometry" />
        </mxCell>
        <mxCell id="miO6C-N8D0zN8yz4dFjm-70" value="" style="rounded=0;whiteSpace=wrap;html=1;" vertex="1" parent="1">
          <mxGeometry x="380" y="150" width="20" height="20" as="geometry" />
        </mxCell>
        <mxCell id="miO6C-N8D0zN8yz4dFjm-71" value="" style="rounded=0;whiteSpace=wrap;html=1;" vertex="1" parent="1">
          <mxGeometry x="400" y="150" width="20" height="20" as="geometry" />
        </mxCell>
        <mxCell id="miO6C-N8D0zN8yz4dFjm-72" value="" style="rounded=0;whiteSpace=wrap;html=1;" vertex="1" parent="1">
          <mxGeometry x="420" y="150" width="20" height="20" as="geometry" />
        </mxCell>
        <mxCell id="miO6C-N8D0zN8yz4dFjm-73" value="Slice" style="text;html=1;strokeColor=none;fillColor=none;align=center;verticalAlign=middle;whiteSpace=wrap;rounded=0;" vertex="1" parent="1">
          <mxGeometry x="355" y="30" width="70" height="30" as="geometry" />
        </mxCell>
        <mxCell id="miO6C-N8D0zN8yz4dFjm-74" value="" style="endArrow=classic;html=1;rounded=0;" edge="1" parent="1">
          <mxGeometry width="50" height="50" relative="1" as="geometry">
            <mxPoint x="320" y="170" as="sourcePoint" />
            <mxPoint x="320" y="70" as="targetPoint" />
          </mxGeometry>
        </mxCell>
        <mxCell id="miO6C-N8D0zN8yz4dFjm-75" value="y" style="edgeLabel;html=1;align=center;verticalAlign=middle;resizable=0;points=[];labelBackgroundColor=none;" vertex="1" connectable="0" parent="miO6C-N8D0zN8yz4dFjm-74">
          <mxGeometry x="0.6942" y="-1" relative="1" as="geometry">
            <mxPoint x="-11" y="-5" as="offset" />
          </mxGeometry>
        </mxCell>
        <mxCell id="miO6C-N8D0zN8yz4dFjm-78" value="" style="endArrow=classic;html=1;rounded=0;" edge="1" parent="1">
          <mxGeometry width="50" height="50" relative="1" as="geometry">
            <mxPoint x="340" y="190" as="sourcePoint" />
            <mxPoint x="440" y="190" as="targetPoint" />
          </mxGeometry>
        </mxCell>
        <mxCell id="miO6C-N8D0zN8yz4dFjm-79" value="x" style="edgeLabel;html=1;align=center;verticalAlign=middle;resizable=0;points=[];labelBackgroundColor=none;" vertex="1" connectable="0" parent="miO6C-N8D0zN8yz4dFjm-78">
          <mxGeometry x="0.8633" y="-1" relative="1" as="geometry">
            <mxPoint x="-3" y="9" as="offset" />
          </mxGeometry>
        </mxCell>
        <mxCell id="miO6C-N8D0zN8yz4dFjm-80" value="" style="shape=parallelogram;perimeter=parallelogramPerimeter;whiteSpace=wrap;html=1;fixedSize=1;size=10;flipH=1;flipV=0;rotation=90;" vertex="1" parent="1">
          <mxGeometry x="430" y="150" width="30" height="10" as="geometry" />
        </mxCell>
        <mxCell id="miO6C-N8D0zN8yz4dFjm-81" value="" style="shape=parallelogram;perimeter=parallelogramPerimeter;whiteSpace=wrap;html=1;fixedSize=1;size=10;flipH=1;flipV=0;rotation=90;" vertex="1" parent="1">
          <mxGeometry x="430" y="130" width="30" height="10" as="geometry" />
        </mxCell>
        <mxCell id="miO6C-N8D0zN8yz4dFjm-82" value="" style="shape=parallelogram;perimeter=parallelogramPerimeter;whiteSpace=wrap;html=1;fixedSize=1;size=10;flipH=1;flipV=0;rotation=90;" vertex="1" parent="1">
          <mxGeometry x="430" y="110" width="30" height="10" as="geometry" />
        </mxCell>
        <mxCell id="miO6C-N8D0zN8yz4dFjm-83" value="" style="shape=parallelogram;perimeter=parallelogramPerimeter;whiteSpace=wrap;html=1;fixedSize=1;size=10;flipH=1;flipV=0;rotation=90;" vertex="1" parent="1">
          <mxGeometry x="430" y="90" width="30" height="10" as="geometry" />
        </mxCell>
        <mxCell id="miO6C-N8D0zN8yz4dFjm-84" value="" style="shape=parallelogram;perimeter=parallelogramPerimeter;whiteSpace=wrap;html=1;fixedSize=1;size=10;flipH=1;flipV=0;rotation=90;" vertex="1" parent="1">
          <mxGeometry x="430" y="70" width="30" height="10" as="geometry" />
        </mxCell>
        <mxCell id="miO6C-N8D0zN8yz4dFjm-85" value="" style="shape=parallelogram;perimeter=parallelogramPerimeter;whiteSpace=wrap;html=1;fixedSize=1;size=10;" vertex="1" parent="1">
          <mxGeometry x="420" y="60" width="30" height="10" as="geometry" />
        </mxCell>
        <mxCell id="miO6C-N8D0zN8yz4dFjm-86" value="" style="shape=parallelogram;perimeter=parallelogramPerimeter;whiteSpace=wrap;html=1;fixedSize=1;size=10;" vertex="1" parent="1">
          <mxGeometry x="400" y="60" width="30" height="10" as="geometry" />
        </mxCell>
        <mxCell id="miO6C-N8D0zN8yz4dFjm-87" value="" style="shape=parallelogram;perimeter=parallelogramPerimeter;whiteSpace=wrap;html=1;fixedSize=1;size=10;" vertex="1" parent="1">
          <mxGeometry x="380" y="60" width="30" height="10" as="geometry" />
        </mxCell>
        <mxCell id="miO6C-N8D0zN8yz4dFjm-88" value="" style="shape=parallelogram;perimeter=parallelogramPerimeter;whiteSpace=wrap;html=1;fixedSize=1;size=10;" vertex="1" parent="1">
          <mxGeometry x="360" y="60" width="30" height="10" as="geometry" />
        </mxCell>
        <mxCell id="miO6C-N8D0zN8yz4dFjm-89" value="" style="shape=parallelogram;perimeter=parallelogramPerimeter;whiteSpace=wrap;html=1;fixedSize=1;size=10;" vertex="1" parent="1">
          <mxGeometry x="340" y="60" width="30" height="10" as="geometry" />
        </mxCell>
        <mxCell id="miO6C-N8D0zN8yz4dFjm-92" value="" style="endArrow=none;html=1;rounded=0;" edge="1" parent="1">
          <mxGeometry width="50" height="50" relative="1" as="geometry">
            <mxPoint x="50" y="190" as="sourcePoint" />
            <mxPoint x="150" y="190" as="targetPoint" />
          </mxGeometry>
        </mxCell>
        <mxCell id="miO6C-N8D0zN8yz4dFjm-93" value="" style="endArrow=none;html=1;rounded=0;" edge="1" parent="1">
          <mxGeometry width="50" height="50" relative="1" as="geometry">
            <mxPoint x="149.70999999999998" y="190" as="sourcePoint" />
            <mxPoint x="149.70999999999998" y="290" as="targetPoint" />
          </mxGeometry>
        </mxCell>
        <mxCell id="miO6C-N8D0zN8yz4dFjm-94" value="" style="endArrow=none;html=1;rounded=0;" edge="1" parent="1">
          <mxGeometry width="50" height="50" relative="1" as="geometry">
            <mxPoint x="59.860000000000014" y="180" as="sourcePoint" />
            <mxPoint x="159.86" y="180" as="targetPoint" />
          </mxGeometry>
        </mxCell>
        <mxCell id="miO6C-N8D0zN8yz4dFjm-95" value="" style="endArrow=none;html=1;rounded=0;" edge="1" parent="1">
          <mxGeometry width="50" height="50" relative="1" as="geometry">
            <mxPoint x="159.57" y="180" as="sourcePoint" />
            <mxPoint x="159.57" y="280" as="targetPoint" />
          </mxGeometry>
        </mxCell>
        <mxCell id="miO6C-N8D0zN8yz4dFjm-96" value="" style="endArrow=none;html=1;rounded=0;" edge="1" parent="1">
          <mxGeometry width="50" height="50" relative="1" as="geometry">
            <mxPoint x="69.86000000000001" y="170" as="sourcePoint" />
            <mxPoint x="169.86" y="170" as="targetPoint" />
          </mxGeometry>
        </mxCell>
        <mxCell id="miO6C-N8D0zN8yz4dFjm-97" value="" style="endArrow=none;html=1;rounded=0;" edge="1" parent="1">
          <mxGeometry width="50" height="50" relative="1" as="geometry">
            <mxPoint x="169.57" y="170" as="sourcePoint" />
            <mxPoint x="169.57" y="270" as="targetPoint" />
          </mxGeometry>
        </mxCell>
        <mxCell id="miO6C-N8D0zN8yz4dFjm-98" value="" style="endArrow=none;html=1;rounded=0;" edge="1" parent="1">
          <mxGeometry width="50" height="50" relative="1" as="geometry">
            <mxPoint x="79.86000000000001" y="160" as="sourcePoint" />
            <mxPoint x="179.86" y="160" as="targetPoint" />
          </mxGeometry>
        </mxCell>
        <mxCell id="miO6C-N8D0zN8yz4dFjm-99" value="" style="endArrow=none;html=1;rounded=0;" edge="1" parent="1">
          <mxGeometry width="50" height="50" relative="1" as="geometry">
            <mxPoint x="179.57" y="160" as="sourcePoint" />
            <mxPoint x="179.57" y="260" as="targetPoint" />
          </mxGeometry>
        </mxCell>
        <mxCell id="miO6C-N8D0zN8yz4dFjm-100" value="" style="endArrow=none;html=1;rounded=0;" edge="1" parent="1">
          <mxGeometry width="50" height="50" relative="1" as="geometry">
            <mxPoint x="89.86000000000001" y="150" as="sourcePoint" />
            <mxPoint x="189.86" y="150" as="targetPoint" />
          </mxGeometry>
        </mxCell>
        <mxCell id="miO6C-N8D0zN8yz4dFjm-101" value="" style="endArrow=none;html=1;rounded=0;" edge="1" parent="1">
          <mxGeometry width="50" height="50" relative="1" as="geometry">
            <mxPoint x="189.57" y="150" as="sourcePoint" />
            <mxPoint x="189.57" y="250" as="targetPoint" />
          </mxGeometry>
        </mxCell>
        <mxCell id="miO6C-N8D0zN8yz4dFjm-102" value="" style="endArrow=none;html=1;rounded=0;" edge="1" parent="1">
          <mxGeometry width="50" height="50" relative="1" as="geometry">
            <mxPoint x="100" y="140" as="sourcePoint" />
            <mxPoint x="200" y="140" as="targetPoint" />
          </mxGeometry>
        </mxCell>
        <mxCell id="miO6C-N8D0zN8yz4dFjm-103" value="" style="endArrow=none;html=1;rounded=0;" edge="1" parent="1">
          <mxGeometry width="50" height="50" relative="1" as="geometry">
            <mxPoint x="199.70999999999998" y="140" as="sourcePoint" />
            <mxPoint x="199.70999999999998" y="240" as="targetPoint" />
          </mxGeometry>
        </mxCell>
        <mxCell id="miO6C-N8D0zN8yz4dFjm-104" value="" style="endArrow=none;html=1;rounded=0;" edge="1" parent="1">
          <mxGeometry width="50" height="50" relative="1" as="geometry">
            <mxPoint x="170" y="70" as="sourcePoint" />
            <mxPoint x="270" y="70" as="targetPoint" />
          </mxGeometry>
        </mxCell>
        <mxCell id="miO6C-N8D0zN8yz4dFjm-105" value="" style="endArrow=none;html=1;rounded=0;" edge="1" parent="1">
          <mxGeometry width="50" height="50" relative="1" as="geometry">
            <mxPoint x="269.71" y="70" as="sourcePoint" />
            <mxPoint x="269.71" y="170" as="targetPoint" />
          </mxGeometry>
        </mxCell>
        <mxCell id="miO6C-N8D0zN8yz4dFjm-106" value="" style="endArrow=none;html=1;rounded=0;" edge="1" parent="1">
          <mxGeometry width="50" height="50" relative="1" as="geometry">
            <mxPoint x="159.72" y="80" as="sourcePoint" />
            <mxPoint x="259.72" y="80" as="targetPoint" />
          </mxGeometry>
        </mxCell>
        <mxCell id="miO6C-N8D0zN8yz4dFjm-107" value="" style="endArrow=none;html=1;rounded=0;" edge="1" parent="1">
          <mxGeometry width="50" height="50" relative="1" as="geometry">
            <mxPoint x="259.42999999999995" y="80" as="sourcePoint" />
            <mxPoint x="259.42999999999995" y="180" as="targetPoint" />
          </mxGeometry>
        </mxCell>
        <mxCell id="miO6C-N8D0zN8yz4dFjm-108" value="" style="endArrow=none;html=1;rounded=0;" edge="1" parent="1">
          <mxGeometry width="50" height="50" relative="1" as="geometry">
            <mxPoint x="149.86" y="90" as="sourcePoint" />
            <mxPoint x="249.86" y="90" as="targetPoint" />
          </mxGeometry>
        </mxCell>
        <mxCell id="miO6C-N8D0zN8yz4dFjm-109" value="" style="endArrow=none;html=1;rounded=0;" edge="1" parent="1">
          <mxGeometry width="50" height="50" relative="1" as="geometry">
            <mxPoint x="249.57" y="90" as="sourcePoint" />
            <mxPoint x="249.57" y="190" as="targetPoint" />
          </mxGeometry>
        </mxCell>
        <mxCell id="miO6C-N8D0zN8yz4dFjm-110" value="" style="endArrow=none;html=1;rounded=0;" edge="1" parent="1">
          <mxGeometry width="50" height="50" relative="1" as="geometry">
            <mxPoint x="139.72" y="100" as="sourcePoint" />
            <mxPoint x="239.72" y="100" as="targetPoint" />
          </mxGeometry>
        </mxCell>
        <mxCell id="miO6C-N8D0zN8yz4dFjm-111" value="" style="endArrow=none;html=1;rounded=0;" edge="1" parent="1">
          <mxGeometry width="50" height="50" relative="1" as="geometry">
            <mxPoint x="239.42999999999998" y="100" as="sourcePoint" />
            <mxPoint x="239.42999999999998" y="200" as="targetPoint" />
          </mxGeometry>
        </mxCell>
        <mxCell id="miO6C-N8D0zN8yz4dFjm-112" value="" style="endArrow=none;html=1;rounded=0;" edge="1" parent="1">
          <mxGeometry width="50" height="50" relative="1" as="geometry">
            <mxPoint x="129.86" y="110" as="sourcePoint" />
            <mxPoint x="229.86" y="110" as="targetPoint" />
          </mxGeometry>
        </mxCell>
        <mxCell id="miO6C-N8D0zN8yz4dFjm-113" value="" style="endArrow=none;html=1;rounded=0;" edge="1" parent="1">
          <mxGeometry width="50" height="50" relative="1" as="geometry">
            <mxPoint x="229.57" y="110" as="sourcePoint" />
            <mxPoint x="229.57" y="210" as="targetPoint" />
          </mxGeometry>
        </mxCell>
        <mxCell id="miO6C-N8D0zN8yz4dFjm-114" value="" style="endArrow=none;html=1;rounded=0;" edge="1" parent="1">
          <mxGeometry width="50" height="50" relative="1" as="geometry">
            <mxPoint x="109.86000000000001" y="130" as="sourcePoint" />
            <mxPoint x="209.86" y="130" as="targetPoint" />
          </mxGeometry>
        </mxCell>
        <mxCell id="miO6C-N8D0zN8yz4dFjm-115" value="" style="endArrow=none;html=1;rounded=0;" edge="1" parent="1">
          <mxGeometry width="50" height="50" relative="1" as="geometry">
            <mxPoint x="209.57" y="130" as="sourcePoint" />
            <mxPoint x="209.57" y="230" as="targetPoint" />
          </mxGeometry>
        </mxCell>
        <mxCell id="miO6C-N8D0zN8yz4dFjm-116" value="" style="endArrow=none;html=1;rounded=0;" edge="1" parent="1">
          <mxGeometry width="50" height="50" relative="1" as="geometry">
            <mxPoint x="120" y="120" as="sourcePoint" />
            <mxPoint x="220" y="120" as="targetPoint" />
          </mxGeometry>
        </mxCell>
        <mxCell id="miO6C-N8D0zN8yz4dFjm-117" value="" style="endArrow=none;html=1;rounded=0;" edge="1" parent="1">
          <mxGeometry width="50" height="50" relative="1" as="geometry">
            <mxPoint x="219.70999999999998" y="120" as="sourcePoint" />
            <mxPoint x="219.70999999999998" y="220" as="targetPoint" />
          </mxGeometry>
        </mxCell>
        <mxCell id="miO6C-N8D0zN8yz4dFjm-118" value="" style="rounded=0;whiteSpace=wrap;html=1;" vertex="1" parent="1">
          <mxGeometry x="480" y="200" width="20" height="20" as="geometry" />
        </mxCell>
        <mxCell id="miO6C-N8D0zN8yz4dFjm-119" value="" style="shape=parallelogram;perimeter=parallelogramPerimeter;whiteSpace=wrap;html=1;fixedSize=1;size=140;" vertex="1" parent="1">
          <mxGeometry x="480" y="60" width="160" height="140" as="geometry" />
        </mxCell>
        <mxCell id="miO6C-N8D0zN8yz4dFjm-120" value="" style="shape=parallelogram;perimeter=parallelogramPerimeter;whiteSpace=wrap;html=1;fixedSize=1;size=140;flipH=1;flipV=0;rotation=90;" vertex="1" parent="1">
          <mxGeometry x="490" y="70" width="160" height="140" as="geometry" />
        </mxCell>
        <mxCell id="miO6C-N8D0zN8yz4dFjm-121" value="" style="endArrow=classic;html=1;rounded=0;" edge="1" parent="1">
          <mxGeometry width="50" height="50" relative="1" as="geometry">
            <mxPoint x="520" y="220" as="sourcePoint" />
            <mxPoint x="640" y="100" as="targetPoint" />
          </mxGeometry>
        </mxCell>
        <mxCell id="miO6C-N8D0zN8yz4dFjm-122" value="z" style="edgeLabel;html=1;align=center;verticalAlign=middle;resizable=0;points=[];labelBackgroundColor=none;" vertex="1" connectable="0" parent="miO6C-N8D0zN8yz4dFjm-121">
          <mxGeometry x="0.8405" y="-1" relative="1" as="geometry">
            <mxPoint x="10" y="-1" as="offset" />
          </mxGeometry>
        </mxCell>
        <mxCell id="miO6C-N8D0zN8yz4dFjm-123" value="Lane" style="text;html=1;strokeColor=none;fillColor=none;align=center;verticalAlign=middle;whiteSpace=wrap;rounded=0;" vertex="1" parent="1">
          <mxGeometry x="570" y="30" width="70" height="30" as="geometry" />
        </mxCell>
        <mxCell id="miO6C-N8D0zN8yz4dFjm-124" value="" style="rounded=0;whiteSpace=wrap;html=1;" vertex="1" parent="1">
          <mxGeometry x="590" y="200" width="20" height="20" as="geometry" />
        </mxCell>
        <mxCell id="miO6C-N8D0zN8yz4dFjm-125" value="" style="rounded=0;whiteSpace=wrap;html=1;" vertex="1" parent="1">
          <mxGeometry x="590" y="220" width="20" height="20" as="geometry" />
        </mxCell>
        <mxCell id="miO6C-N8D0zN8yz4dFjm-126" value="" style="rounded=0;whiteSpace=wrap;html=1;" vertex="1" parent="1">
          <mxGeometry x="590" y="240" width="20" height="20" as="geometry" />
        </mxCell>
        <mxCell id="miO6C-N8D0zN8yz4dFjm-127" value="" style="rounded=0;whiteSpace=wrap;html=1;" vertex="1" parent="1">
          <mxGeometry x="590" y="260" width="20" height="20" as="geometry" />
        </mxCell>
        <mxCell id="miO6C-N8D0zN8yz4dFjm-128" value="" style="rounded=0;whiteSpace=wrap;html=1;" vertex="1" parent="1">
          <mxGeometry x="590" y="280" width="20" height="20" as="geometry" />
        </mxCell>
        <mxCell id="miO6C-N8D0zN8yz4dFjm-129" value="" style="rounded=0;whiteSpace=wrap;html=1;" vertex="1" parent="1">
          <mxGeometry x="410" y="280" width="20" height="20" as="geometry" />
        </mxCell>
        <mxCell id="miO6C-N8D0zN8yz4dFjm-130" value="" style="rounded=0;whiteSpace=wrap;html=1;" vertex="1" parent="1">
          <mxGeometry x="430" y="280" width="20" height="20" as="geometry" />
        </mxCell>
        <mxCell id="miO6C-N8D0zN8yz4dFjm-131" value="" style="rounded=0;whiteSpace=wrap;html=1;" vertex="1" parent="1">
          <mxGeometry x="450" y="280" width="20" height="20" as="geometry" />
        </mxCell>
        <mxCell id="miO6C-N8D0zN8yz4dFjm-132" value="" style="rounded=0;whiteSpace=wrap;html=1;" vertex="1" parent="1">
          <mxGeometry x="470" y="280" width="20" height="20" as="geometry" />
        </mxCell>
        <mxCell id="miO6C-N8D0zN8yz4dFjm-133" value="" style="rounded=0;whiteSpace=wrap;html=1;" vertex="1" parent="1">
          <mxGeometry x="490" y="280" width="20" height="20" as="geometry" />
        </mxCell>
        <mxCell id="miO6C-N8D0zN8yz4dFjm-134" value="" style="endArrow=classic;html=1;rounded=0;" edge="1" parent="1">
          <mxGeometry width="50" height="50" relative="1" as="geometry">
            <mxPoint x="410" y="320" as="sourcePoint" />
            <mxPoint x="510" y="320" as="targetPoint" />
          </mxGeometry>
        </mxCell>
        <mxCell id="miO6C-N8D0zN8yz4dFjm-135" value="x" style="edgeLabel;html=1;align=center;verticalAlign=middle;resizable=0;points=[];labelBackgroundColor=none;" vertex="1" connectable="0" parent="miO6C-N8D0zN8yz4dFjm-134">
          <mxGeometry x="0.8633" y="-1" relative="1" as="geometry">
            <mxPoint x="-3" y="9" as="offset" />
          </mxGeometry>
        </mxCell>
        <mxCell id="miO6C-N8D0zN8yz4dFjm-136" value="" style="endArrow=classic;html=1;rounded=0;" edge="1" parent="1">
          <mxGeometry width="50" height="50" relative="1" as="geometry">
            <mxPoint x="570" y="300" as="sourcePoint" />
            <mxPoint x="570" y="200" as="targetPoint" />
          </mxGeometry>
        </mxCell>
        <mxCell id="miO6C-N8D0zN8yz4dFjm-137" value="y" style="edgeLabel;html=1;align=center;verticalAlign=middle;resizable=0;points=[];labelBackgroundColor=none;" vertex="1" connectable="0" parent="miO6C-N8D0zN8yz4dFjm-136">
          <mxGeometry x="0.6942" y="-1" relative="1" as="geometry">
            <mxPoint x="-11" y="-5" as="offset" />
          </mxGeometry>
        </mxCell>
        <mxCell id="miO6C-N8D0zN8yz4dFjm-138" value="Zeile / Row" style="text;html=1;align=center;verticalAlign=middle;resizable=0;points=[];autosize=1;strokeColor=none;fillColor=none;" vertex="1" parent="1">
          <mxGeometry x="420" y="330" width="80" height="30" as="geometry" />
        </mxCell>
        <mxCell id="miO6C-N8D0zN8yz4dFjm-139" value="Spalte / Column" style="text;html=1;align=center;verticalAlign=middle;resizable=0;points=[];autosize=1;strokeColor=none;fillColor=none;" vertex="1" parent="1">
          <mxGeometry x="550" y="330" width="110" height="30" as="geometry" />
        </mxCell>
        <mxCell id="miO6C-N8D0zN8yz4dFjm-140" value="" style="shape=parallelogram;perimeter=parallelogramPerimeter;whiteSpace=wrap;html=1;fixedSize=1;size=10;" vertex="1" parent="1">
          <mxGeometry x="590" y="190" width="30" height="10" as="geometry" />
        </mxCell>
        <mxCell id="miO6C-N8D0zN8yz4dFjm-141" value="" style="shape=parallelogram;perimeter=parallelogramPerimeter;whiteSpace=wrap;html=1;fixedSize=1;size=10;" vertex="1" parent="1">
          <mxGeometry x="410" y="270" width="30" height="10" as="geometry" />
        </mxCell>
        <mxCell id="miO6C-N8D0zN8yz4dFjm-142" value="" style="shape=parallelogram;perimeter=parallelogramPerimeter;whiteSpace=wrap;html=1;fixedSize=1;size=10;" vertex="1" parent="1">
          <mxGeometry x="430" y="270" width="30" height="10" as="geometry" />
        </mxCell>
        <mxCell id="miO6C-N8D0zN8yz4dFjm-143" value="" style="shape=parallelogram;perimeter=parallelogramPerimeter;whiteSpace=wrap;html=1;fixedSize=1;size=10;" vertex="1" parent="1">
          <mxGeometry x="450" y="270" width="30" height="10" as="geometry" />
        </mxCell>
        <mxCell id="miO6C-N8D0zN8yz4dFjm-144" value="" style="shape=parallelogram;perimeter=parallelogramPerimeter;whiteSpace=wrap;html=1;fixedSize=1;size=10;" vertex="1" parent="1">
          <mxGeometry x="470" y="270" width="30" height="10" as="geometry" />
        </mxCell>
        <mxCell id="miO6C-N8D0zN8yz4dFjm-145" value="" style="shape=parallelogram;perimeter=parallelogramPerimeter;whiteSpace=wrap;html=1;fixedSize=1;size=10;" vertex="1" parent="1">
          <mxGeometry x="490" y="270" width="30" height="10" as="geometry" />
        </mxCell>
        <mxCell id="miO6C-N8D0zN8yz4dFjm-147" value="" style="shape=parallelogram;perimeter=parallelogramPerimeter;whiteSpace=wrap;html=1;fixedSize=1;size=10;flipH=1;flipV=0;rotation=90;" vertex="1" parent="1">
          <mxGeometry x="500" y="280" width="30" height="10" as="geometry" />
        </mxCell>
        <mxCell id="miO6C-N8D0zN8yz4dFjm-148" value="" style="shape=parallelogram;perimeter=parallelogramPerimeter;whiteSpace=wrap;html=1;fixedSize=1;size=10;flipH=1;flipV=0;rotation=90;" vertex="1" parent="1">
          <mxGeometry x="600" y="280" width="30" height="10" as="geometry" />
        </mxCell>
        <mxCell id="miO6C-N8D0zN8yz4dFjm-149" value="" style="shape=parallelogram;perimeter=parallelogramPerimeter;whiteSpace=wrap;html=1;fixedSize=1;size=10;flipH=1;flipV=0;rotation=90;" vertex="1" parent="1">
          <mxGeometry x="600" y="260" width="30" height="10" as="geometry" />
        </mxCell>
        <mxCell id="miO6C-N8D0zN8yz4dFjm-150" value="" style="shape=parallelogram;perimeter=parallelogramPerimeter;whiteSpace=wrap;html=1;fixedSize=1;size=10;flipH=1;flipV=0;rotation=90;" vertex="1" parent="1">
          <mxGeometry x="600" y="240" width="30" height="10" as="geometry" />
        </mxCell>
        <mxCell id="miO6C-N8D0zN8yz4dFjm-151" value="" style="shape=parallelogram;perimeter=parallelogramPerimeter;whiteSpace=wrap;html=1;fixedSize=1;size=10;flipH=1;flipV=0;rotation=90;" vertex="1" parent="1">
          <mxGeometry x="600" y="220" width="30" height="10" as="geometry" />
        </mxCell>
        <mxCell id="miO6C-N8D0zN8yz4dFjm-152" value="" style="shape=parallelogram;perimeter=parallelogramPerimeter;whiteSpace=wrap;html=1;fixedSize=1;size=10;flipH=1;flipV=0;rotation=90;" vertex="1" parent="1">
          <mxGeometry x="600" y="200" width="30" height="10" as="geometry" />
        </mxCell>
        <mxCell id="miO6C-N8D0zN8yz4dFjm-155" value="" style="endArrow=none;html=1;rounded=0;" edge="1" parent="1">
          <mxGeometry width="50" height="50" relative="1" as="geometry">
            <mxPoint x="490" y="190" as="sourcePoint" />
            <mxPoint x="510" y="190" as="targetPoint" />
          </mxGeometry>
        </mxCell>
        <mxCell id="miO6C-N8D0zN8yz4dFjm-156" value="" style="endArrow=none;html=1;rounded=0;" edge="1" parent="1">
          <mxGeometry width="50" height="50" relative="1" as="geometry">
            <mxPoint x="509.83000000000004" y="190" as="sourcePoint" />
            <mxPoint x="509.83000000000004" y="210" as="targetPoint" />
          </mxGeometry>
        </mxCell>
        <mxCell id="miO6C-N8D0zN8yz4dFjm-157" value="" style="endArrow=none;html=1;rounded=0;" edge="1" parent="1">
          <mxGeometry width="50" height="50" relative="1" as="geometry">
            <mxPoint x="500" y="180" as="sourcePoint" />
            <mxPoint x="520" y="180" as="targetPoint" />
          </mxGeometry>
        </mxCell>
        <mxCell id="miO6C-N8D0zN8yz4dFjm-158" value="" style="endArrow=none;html=1;rounded=0;" edge="1" parent="1">
          <mxGeometry width="50" height="50" relative="1" as="geometry">
            <mxPoint x="519.83" y="180" as="sourcePoint" />
            <mxPoint x="519.83" y="200" as="targetPoint" />
          </mxGeometry>
        </mxCell>
        <mxCell id="miO6C-N8D0zN8yz4dFjm-159" value="" style="endArrow=none;html=1;rounded=0;" edge="1" parent="1">
          <mxGeometry width="50" height="50" relative="1" as="geometry">
            <mxPoint x="510" y="170" as="sourcePoint" />
            <mxPoint x="530" y="170" as="targetPoint" />
          </mxGeometry>
        </mxCell>
        <mxCell id="miO6C-N8D0zN8yz4dFjm-160" value="" style="endArrow=none;html=1;rounded=0;" edge="1" parent="1">
          <mxGeometry width="50" height="50" relative="1" as="geometry">
            <mxPoint x="529.83" y="170" as="sourcePoint" />
            <mxPoint x="529.83" y="190" as="targetPoint" />
          </mxGeometry>
        </mxCell>
        <mxCell id="miO6C-N8D0zN8yz4dFjm-161" value="" style="endArrow=none;html=1;rounded=0;" edge="1" parent="1">
          <mxGeometry width="50" height="50" relative="1" as="geometry">
            <mxPoint x="520" y="160" as="sourcePoint" />
            <mxPoint x="540" y="160" as="targetPoint" />
          </mxGeometry>
        </mxCell>
        <mxCell id="miO6C-N8D0zN8yz4dFjm-162" value="" style="endArrow=none;html=1;rounded=0;" edge="1" parent="1">
          <mxGeometry width="50" height="50" relative="1" as="geometry">
            <mxPoint x="539.83" y="160" as="sourcePoint" />
            <mxPoint x="539.83" y="180" as="targetPoint" />
          </mxGeometry>
        </mxCell>
        <mxCell id="miO6C-N8D0zN8yz4dFjm-163" value="" style="endArrow=none;html=1;rounded=0;" edge="1" parent="1">
          <mxGeometry width="50" height="50" relative="1" as="geometry">
            <mxPoint x="530" y="150" as="sourcePoint" />
            <mxPoint x="550" y="150" as="targetPoint" />
          </mxGeometry>
        </mxCell>
        <mxCell id="miO6C-N8D0zN8yz4dFjm-164" value="" style="endArrow=none;html=1;rounded=0;" edge="1" parent="1">
          <mxGeometry width="50" height="50" relative="1" as="geometry">
            <mxPoint x="549.83" y="150" as="sourcePoint" />
            <mxPoint x="549.83" y="170" as="targetPoint" />
          </mxGeometry>
        </mxCell>
        <mxCell id="miO6C-N8D0zN8yz4dFjm-165" value="" style="endArrow=none;html=1;rounded=0;" edge="1" parent="1">
          <mxGeometry width="50" height="50" relative="1" as="geometry">
            <mxPoint x="540" y="140" as="sourcePoint" />
            <mxPoint x="560" y="140" as="targetPoint" />
          </mxGeometry>
        </mxCell>
        <mxCell id="miO6C-N8D0zN8yz4dFjm-166" value="" style="endArrow=none;html=1;rounded=0;" edge="1" parent="1">
          <mxGeometry width="50" height="50" relative="1" as="geometry">
            <mxPoint x="559.83" y="140" as="sourcePoint" />
            <mxPoint x="559.83" y="160" as="targetPoint" />
          </mxGeometry>
        </mxCell>
        <mxCell id="miO6C-N8D0zN8yz4dFjm-167" value="" style="endArrow=none;html=1;rounded=0;" edge="1" parent="1">
          <mxGeometry width="50" height="50" relative="1" as="geometry">
            <mxPoint x="549.92" y="130" as="sourcePoint" />
            <mxPoint x="569.92" y="130" as="targetPoint" />
          </mxGeometry>
        </mxCell>
        <mxCell id="miO6C-N8D0zN8yz4dFjm-168" value="" style="endArrow=none;html=1;rounded=0;" edge="1" parent="1">
          <mxGeometry width="50" height="50" relative="1" as="geometry">
            <mxPoint x="569.75" y="130" as="sourcePoint" />
            <mxPoint x="569.75" y="150" as="targetPoint" />
          </mxGeometry>
        </mxCell>
        <mxCell id="miO6C-N8D0zN8yz4dFjm-169" value="" style="endArrow=none;html=1;rounded=0;" edge="1" parent="1">
          <mxGeometry width="50" height="50" relative="1" as="geometry">
            <mxPoint x="559.92" y="120" as="sourcePoint" />
            <mxPoint x="579.92" y="120" as="targetPoint" />
          </mxGeometry>
        </mxCell>
        <mxCell id="miO6C-N8D0zN8yz4dFjm-170" value="" style="endArrow=none;html=1;rounded=0;" edge="1" parent="1">
          <mxGeometry width="50" height="50" relative="1" as="geometry">
            <mxPoint x="579.75" y="120" as="sourcePoint" />
            <mxPoint x="579.75" y="140" as="targetPoint" />
          </mxGeometry>
        </mxCell>
        <mxCell id="miO6C-N8D0zN8yz4dFjm-171" value="" style="endArrow=none;html=1;rounded=0;" edge="1" parent="1">
          <mxGeometry width="50" height="50" relative="1" as="geometry">
            <mxPoint x="570" y="110" as="sourcePoint" />
            <mxPoint x="590" y="110" as="targetPoint" />
          </mxGeometry>
        </mxCell>
        <mxCell id="miO6C-N8D0zN8yz4dFjm-172" value="" style="endArrow=none;html=1;rounded=0;" edge="1" parent="1">
          <mxGeometry width="50" height="50" relative="1" as="geometry">
            <mxPoint x="589.83" y="110" as="sourcePoint" />
            <mxPoint x="589.83" y="130" as="targetPoint" />
          </mxGeometry>
        </mxCell>
        <mxCell id="miO6C-N8D0zN8yz4dFjm-173" value="" style="endArrow=none;html=1;rounded=0;" edge="1" parent="1">
          <mxGeometry width="50" height="50" relative="1" as="geometry">
            <mxPoint x="590" y="90" as="sourcePoint" />
            <mxPoint x="610" y="90" as="targetPoint" />
          </mxGeometry>
        </mxCell>
        <mxCell id="miO6C-N8D0zN8yz4dFjm-174" value="" style="endArrow=none;html=1;rounded=0;" edge="1" parent="1">
          <mxGeometry width="50" height="50" relative="1" as="geometry">
            <mxPoint x="609.83" y="90" as="sourcePoint" />
            <mxPoint x="609.83" y="110" as="targetPoint" />
          </mxGeometry>
        </mxCell>
        <mxCell id="miO6C-N8D0zN8yz4dFjm-175" value="" style="endArrow=none;html=1;rounded=0;" edge="1" parent="1">
          <mxGeometry width="50" height="50" relative="1" as="geometry">
            <mxPoint x="599.84" y="80" as="sourcePoint" />
            <mxPoint x="619.84" y="80" as="targetPoint" />
          </mxGeometry>
        </mxCell>
        <mxCell id="miO6C-N8D0zN8yz4dFjm-176" value="" style="endArrow=none;html=1;rounded=0;" edge="1" parent="1">
          <mxGeometry width="50" height="50" relative="1" as="geometry">
            <mxPoint x="619.6700000000001" y="80" as="sourcePoint" />
            <mxPoint x="619.6700000000001" y="100" as="targetPoint" />
          </mxGeometry>
        </mxCell>
        <mxCell id="miO6C-N8D0zN8yz4dFjm-177" value="" style="endArrow=none;html=1;rounded=0;" edge="1" parent="1">
          <mxGeometry width="50" height="50" relative="1" as="geometry">
            <mxPoint x="609.84" y="70" as="sourcePoint" />
            <mxPoint x="629.84" y="70" as="targetPoint" />
          </mxGeometry>
        </mxCell>
        <mxCell id="miO6C-N8D0zN8yz4dFjm-178" value="" style="endArrow=none;html=1;rounded=0;" edge="1" parent="1">
          <mxGeometry width="50" height="50" relative="1" as="geometry">
            <mxPoint x="629.6700000000001" y="70" as="sourcePoint" />
            <mxPoint x="629.6700000000001" y="90" as="targetPoint" />
          </mxGeometry>
        </mxCell>
        <mxCell id="miO6C-N8D0zN8yz4dFjm-179" value="" style="endArrow=none;html=1;rounded=0;" edge="1" parent="1">
          <mxGeometry width="50" height="50" relative="1" as="geometry">
            <mxPoint x="580" y="100" as="sourcePoint" />
            <mxPoint x="600" y="100" as="targetPoint" />
          </mxGeometry>
        </mxCell>
        <mxCell id="miO6C-N8D0zN8yz4dFjm-180" value="" style="endArrow=none;html=1;rounded=0;" edge="1" parent="1">
          <mxGeometry width="50" height="50" relative="1" as="geometry">
            <mxPoint x="600" y="100" as="sourcePoint" />
            <mxPoint x="600" y="120" as="targetPoint" />
          </mxGeometry>
        </mxCell>
        <mxCell id="miO6C-N8D0zN8yz4dFjm-181" value="" style="rounded=0;whiteSpace=wrap;html=1;" vertex="1" parent="1">
          <mxGeometry x="280" y="280" width="20" height="20" as="geometry" />
        </mxCell>
        <mxCell id="miO6C-N8D0zN8yz4dFjm-182" value="" style="shape=parallelogram;perimeter=parallelogramPerimeter;whiteSpace=wrap;html=1;fixedSize=1;size=10;" vertex="1" parent="1">
          <mxGeometry x="280" y="270" width="30" height="10" as="geometry" />
        </mxCell>
        <mxCell id="miO6C-N8D0zN8yz4dFjm-183" value="" style="shape=parallelogram;perimeter=parallelogramPerimeter;whiteSpace=wrap;html=1;fixedSize=1;size=10;flipH=1;flipV=0;rotation=90;" vertex="1" parent="1">
          <mxGeometry x="290" y="280" width="30" height="10" as="geometry" />
        </mxCell>
        <mxCell id="miO6C-N8D0zN8yz4dFjm-184" value="Bit" style="text;html=1;strokeColor=none;fillColor=none;align=center;verticalAlign=middle;whiteSpace=wrap;rounded=0;" vertex="1" parent="1">
          <mxGeometry x="265" y="310" width="60" height="30" as="geometry" />
        </mxCell>
      </root>
    </mxGraphModel>
  </diagram>
</mxfile>
